<svg width="170" height="94" viewBox="0 0 170 94" fill="none" xmlns="http://www.w3.org/2000/svg">
<path d="M39.392 93.536C31.968 93.536 25.3547 91.7013 19.552 88.032C13.7493 84.3627 9.184 79.072 5.856 72.16C2.61333 65.1627 0.992 56.8427 0.992 47.2C0.992 37.5573 2.61333 29.28 5.856 22.368C9.184 15.3707 13.7493 10.0373 19.552 6.368C25.3547 2.69866 31.968 0.863998 39.392 0.863998C46.816 0.863998 53.4293 2.69866 59.232 6.368C65.0347 10.0373 69.5573 15.3707 72.8 22.368C76.128 29.28 77.792 37.5573 77.792 47.2C77.792 56.8427 76.128 65.1627 72.8 72.16C69.5573 79.072 65.0347 84.3627 59.232 88.032C53.4293 91.7013 46.816 93.536 39.392 93.536ZM39.392 76C44.8533 76 49.12 73.6533 52.192 68.96C55.3493 64.2667 56.928 57.0133 56.928 47.2C56.928 37.3867 55.3493 30.1333 52.192 25.44C49.12 20.7467 44.8533 18.4 39.392 18.4C34.016 18.4 29.7493 20.7467 26.592 25.44C23.52 30.1333 21.984 37.3867 21.984 47.2C21.984 57.0133 23.52 64.2667 26.592 68.96C29.7493 73.6533 34.016 76 39.392 76ZM169.915 73.184H155.323V92H135.099V73.184H86.843V59.232L129.083 2.39999H150.843L111.675 56.288H135.739V39.52H155.323V56.288H169.915V73.184Z" fill="white" fill-opacity="0.2"/>
</svg>
