<svg width="27" height="27" viewBox="0 0 27 27" fill="none" xmlns="http://www.w3.org/2000/svg">
<path d="M13.079 0.0791016C10.5078 0.0791016 7.99441 0.841538 5.85657 2.27C3.71873 3.69845 2.05249 5.72878 1.06855 8.10421C0.0846122 10.4797 -0.172831 13.0935 0.328777 15.6153C0.830384 18.137 2.06851 20.4534 3.8866 22.2715C5.70468 24.0896 8.02106 25.3277 10.5428 25.8293C13.0646 26.3309 15.6784 26.0735 18.0539 25.0895C20.4293 24.1056 22.4596 22.4393 23.8881 20.3015C25.3165 18.1637 26.079 15.6503 26.079 13.0791C26.0791 11.3719 25.743 9.68134 25.0897 8.10405C24.4364 6.52675 23.4789 5.09359 22.2717 3.8864C21.0645 2.67921 19.6313 1.72164 18.054 1.06838C16.4767 0.415118 14.7862 0.0789599 13.079 0.0791016V0.0791016ZM17.2123 19.7773C17.1637 19.8986 17.0896 20.0082 16.9952 20.0985C16.9008 20.1889 16.7881 20.2581 16.6647 20.3013C16.5414 20.3446 16.4102 20.361 16.28 20.3494C16.1498 20.3379 16.0235 20.2986 15.9097 20.2343L12.3807 17.4921L10.1157 19.5817C10.0631 19.6205 10.0016 19.6455 9.93688 19.6544C9.87214 19.6632 9.80621 19.6556 9.74516 19.6323L10.1794 15.7473L10.1933 15.7583L10.2021 15.6816C10.2021 15.6816 16.5526 9.89988 16.8113 9.65355C17.0732 9.40785 16.9868 9.35455 16.9868 9.35455C17.0017 9.05486 16.5169 9.35455 16.5169 9.35455L8.10258 14.7678L4.59845 13.5744C4.59845 13.5744 4.06025 13.3813 4.00955 12.9569C3.95625 12.5357 4.61598 12.3069 4.61598 12.3069L18.5481 6.77214C18.5481 6.77214 19.6934 6.26186 19.6934 7.1069L17.2123 19.7773Z" fill="white"/>
</svg>
