<svg width="153" height="94" viewBox="0 0 153 94" fill="none" xmlns="http://www.w3.org/2000/svg">
<path d="M39.392 93.5961C31.968 93.5961 25.3547 91.7614 19.552 88.0921C13.7493 84.4227 9.184 79.1321 5.856 72.2201C2.61333 65.2227 0.992 56.9027 0.992 47.2601C0.992 37.6174 2.61333 29.3401 5.856 22.4281C9.184 15.4307 13.7493 10.0974 19.552 6.42805C25.3547 2.75872 31.968 0.924057 39.392 0.924057C46.816 0.924057 53.4293 2.75872 59.232 6.42805C65.0347 10.0974 69.5573 15.4307 72.8 22.4281C76.128 29.3401 77.792 37.6174 77.792 47.2601C77.792 56.9027 76.128 65.2227 72.8 72.2201C69.5573 79.1321 65.0347 84.4227 59.232 88.0921C53.4293 91.7614 46.816 93.5961 39.392 93.5961ZM39.392 76.0601C44.8533 76.0601 49.12 73.7134 52.192 69.0201C55.3493 64.3267 56.928 57.0734 56.928 47.2601C56.928 37.4467 55.3493 30.1934 52.192 25.5001C49.12 20.8067 44.8533 18.4601 39.392 18.4601C34.016 18.4601 29.7493 20.8067 26.592 25.5001C23.52 30.1934 21.984 37.4467 21.984 47.2601C21.984 57.0734 23.52 64.3267 26.592 69.0201C29.7493 73.7134 34.016 76.0601 39.392 76.0601ZM128.473 38.9401C136.324 40.2201 142.34 43.1641 146.521 47.7721C150.702 52.2947 152.793 57.9267 152.793 64.6681C152.793 69.8734 151.428 74.6947 148.697 79.1321C145.966 83.4841 141.785 86.9827 136.153 89.6281C130.606 92.2734 123.78 93.5961 115.673 93.5961C109.358 93.5961 103.129 92.7854 96.985 91.1641C90.9263 89.4574 85.7637 87.0681 81.497 83.9961L89.561 68.1241C92.9743 70.6841 96.8997 72.6894 101.337 74.1401C105.86 75.5054 110.468 76.1881 115.161 76.1881C120.366 76.1881 124.462 75.2067 127.449 73.2441C130.436 71.1961 131.929 68.3374 131.929 64.6681C131.929 57.3294 126.34 53.6601 115.161 53.6601H105.689V39.9641L124.121 19.1001H85.977V2.46005H148.697V15.9001L128.473 38.9401Z" fill="white" fill-opacity="0.2"/>
</svg>
