<svg width="155" height="94" viewBox="0 0 155 94" fill="none" xmlns="http://www.w3.org/2000/svg">
<path d="M39.392 93.0082C31.968 93.0082 25.3547 91.1735 19.552 87.5042C13.7493 83.8348 9.184 78.5442 5.856 71.6322C2.61333 64.6348 0.992 56.3148 0.992 46.6722C0.992 37.0295 2.61333 28.7522 5.856 21.8402C9.184 14.8428 13.7493 9.5095 19.552 5.84016C25.3547 2.17083 31.968 0.336166 39.392 0.336166C46.816 0.336166 53.4293 2.17083 59.232 5.84016C65.0347 9.5095 69.5573 14.8428 72.8 21.8402C76.128 28.7522 77.792 37.0295 77.792 46.6722C77.792 56.3148 76.128 64.6348 72.8 71.6322C69.5573 78.5442 65.0347 83.8348 59.232 87.5042C53.4293 91.1735 46.816 93.0082 39.392 93.0082ZM39.392 75.4722C44.8533 75.4722 49.12 73.1255 52.192 68.4322C55.3493 63.7388 56.928 56.4855 56.928 46.6722C56.928 36.8588 55.3493 29.6055 52.192 24.9122C49.12 20.2188 44.8533 17.8722 39.392 17.8722C34.016 17.8722 29.7493 20.2188 26.592 24.9122C23.52 29.6055 21.984 36.8588 21.984 46.6722C21.984 56.4855 23.52 63.7388 26.592 68.4322C29.7493 73.1255 34.016 75.4722 39.392 75.4722ZM154.061 74.5762V91.4722H86.349V78.0322L120.909 45.3922C124.578 41.8935 127.053 38.9068 128.333 36.4322C129.613 33.8722 130.253 31.3548 130.253 28.8802C130.253 25.2962 129.016 22.5655 126.541 20.6882C124.152 18.7255 120.61 17.7442 115.917 17.7442C111.992 17.7442 108.45 18.5122 105.293 20.0482C102.136 21.4988 99.4903 23.7175 97.357 26.7042L82.253 16.9762C85.7517 11.7708 90.573 7.7175 96.717 4.81616C102.861 1.8295 109.901 0.336166 117.837 0.336166C124.493 0.336166 130.296 1.4455 135.245 3.66416C140.28 5.7975 144.162 8.8695 146.893 12.8802C149.709 16.8055 151.117 21.4562 151.117 26.8322C151.117 31.6962 150.093 36.2615 148.045 40.5282C145.997 44.7948 142.029 49.6588 136.141 55.1202L115.533 74.5762H154.061Z" fill="white" fill-opacity="0.2"/>
</svg>
