<svg width="27" height="27" viewBox="0 0 27 27" fill="none" xmlns="http://www.w3.org/2000/svg">
<path d="M25.9647 4.25498C25.7006 3.57089 25.2961 2.94971 24.7773 2.43146C24.2585 1.91321 23.6369 1.50937 22.9525 1.24596C22.0102 0.89694 21.0149 0.712465 20.0101 0.70059C18.3391 0.624492 17.8381 0.605469 13.6052 0.605469C9.3723 0.605469 8.87132 0.624492 7.20035 0.70059C6.19447 0.712103 5.19806 0.896583 4.25474 1.24596C3.57065 1.51009 2.94947 1.91458 2.43122 2.43338C1.91296 2.95218 1.50912 3.57378 1.24571 4.25815C0.896696 5.20048 0.712221 6.19578 0.700346 7.20059C0.624248 8.87157 0.605225 9.37254 0.605225 13.6055C0.605225 17.8384 0.624248 18.3394 0.700346 20.0103C0.711858 21.0162 0.896339 22.0126 1.24571 22.956C1.50984 23.64 1.91434 24.2612 2.43314 24.7795C2.95194 25.2977 3.57354 25.7016 4.25791 25.965C5.20023 26.314 6.19553 26.4985 7.20035 26.5103C8.87132 26.5864 9.3723 26.6055 13.6052 26.6055C17.8381 26.6055 18.3391 26.5864 20.0101 26.5103C21.016 26.4988 22.0124 26.3144 22.9557 25.965C23.6398 25.7008 24.261 25.2964 24.7792 24.7776C25.2975 24.2588 25.7013 23.6371 25.9647 22.9528C26.3137 22.0105 26.4982 21.0152 26.5101 20.0103C26.5862 18.3394 26.6052 17.8384 26.6052 13.6055C26.6052 9.37254 26.5862 8.87157 26.5101 7.20059C26.4986 6.19471 26.3141 5.19831 25.9647 4.25498ZM13.6052 21.7479C11.9948 21.7479 10.4205 21.2704 9.08153 20.3757C7.74251 19.481 6.69887 18.2093 6.08259 16.7214C5.46631 15.2336 5.30506 13.5964 5.61924 12.017C5.93342 10.4375 6.70891 8.98663 7.84765 7.84789C8.98639 6.70915 10.4372 5.93366 12.0167 5.61948C13.5962 5.30531 15.2334 5.46655 16.7212 6.08283C18.209 6.69912 19.4807 7.74275 20.3754 9.08177C21.2701 10.4208 21.7477 11.995 21.7477 13.6055C21.7477 15.765 20.8898 17.836 19.3628 19.363C17.8358 20.89 15.7647 21.7479 13.6052 21.7479V21.7479ZM22.0679 7.04522C21.6916 7.04522 21.3238 6.93365 21.011 6.7246C20.6981 6.51556 20.4543 6.21844 20.3103 5.87082C20.1663 5.52319 20.1286 5.14067 20.202 4.77164C20.2754 4.4026 20.4566 4.06362 20.7227 3.79756C20.9887 3.5315 21.3277 3.35031 21.6968 3.2769C22.0658 3.2035 22.4483 3.24117 22.7959 3.38516C23.1436 3.52915 23.4407 3.77299 23.6497 4.08585C23.8588 4.3987 23.9703 4.76652 23.9703 5.14278C23.9703 5.64734 23.7699 6.13124 23.4131 6.48801C23.0564 6.84479 22.5725 7.04522 22.0679 7.04522V7.04522Z" fill="white"/>
<path d="M14.239 12.3357C15.2897 12.3357 16.1414 13.1875 16.1414 14.2382C16.1414 15.2889 15.2897 16.1406 14.239 16.1406C13.1883 16.1406 12.3365 15.2889 12.3365 14.2382C12.3365 13.1875 13.1883 12.3357 14.239 12.3357Z" fill="white"/>
</svg>
